<?xml version="1.0" encoding="utf-8"?>
<!-- Generator: Adobe Illustrator 16.0.0, SVG Export Plug-In . SVG Version: 6.00 Build 0)  -->
<!DOCTYPE svg PUBLIC "-//W3C//DTD SVG 1.1//EN" "http://www.w3.org/Graphics/SVG/1.1/DTD/svg11.dtd">
<svg version="1.1" id="圖層_1" xmlns="http://www.w3.org/2000/svg" xmlns:xlink="http://www.w3.org/1999/xlink" x="0px" y="0px"
	 width="923.934px" height="191.633px" viewBox="0 0 923.934 191.633" enable-background="new 0 0 923.934 191.633"
	 xml:space="preserve">
<g>
	<g opacity="0.3">
		<path d="M53,13.034v11.2H33.5v59.4H19.4v-59.4H0v-11.2H53z"/>
		<path d="M95.566,71.8h-23.6L67.8,83.634H55.367l21.667-58.167h13.433l21.567,58.167h-12.4L95.566,71.8z M92.4,62.9l-8.667-24.833
			L75.066,62.9H92.4z"/>
		<path d="M130.167,24.8v58.833h-11.733V24.8H130.167z"/>
		<path d="M218,24.8l-14.434,58.833h-14.5l-11-42.667L167,83.634h-14.434L138.133,24.8H150.9l9,45.6l11.667-45.6H184.5l11.733,45.6
			l9-45.6H218L218,24.8z"/>
		<path d="M261.8,71.8h-23.6l-4.167,11.833h-12.4L243.3,25.467h13.433L278.3,83.634h-12.4L261.8,71.8z M258.633,62.9l-8.667-24.833
			L241.3,62.9H258.633z"/>
		<path d="M334.467,83.634h-11.733l-26.333-40v40h-11.767V24.8h11.733L322.7,65.133V24.8h11.734v58.833L334.467,83.634
			L334.467,83.634z"/>
		<path d="M378.467,24.234v18.3h25v10.8h-25v19h28v11.3h-42.1v-70.6h42.1v11.2H378.467z"/>
		<path d="M450.399,83.634l-13.269-20.1l-11.731,20.1H412l18.5-30.1l-19-28.767h13.933l13.001,19.667l11.602-19.667h13.398
			l-18.398,29.6l19.333,29.267H450.399z"/>
		<path d="M482.399,61.8v21.833h-11.733V24.8h21.4c6.934,0,12.167,1.667,15.698,5c3.533,3.333,5.302,7.867,5.302,13.6
			c0,5.6-1.833,10.1-5.469,13.434c-3.633,3.333-8.833,5-15.531,5h-9.667V61.8z M501.133,43.4c0-2.933-0.8-5.2-2.433-6.733
			c-1.634-1.533-4.233-2.333-7.936-2.333h-8.398V52.4h8.398C497.7,52.4,501.133,49.4,501.133,43.4z"/>
		<path d="M532.467,34.134v15.233H553.3v9h-20.833V74.2H555.8v9.433h-35.1V24.8h35.1v9.333L532.467,34.134L532.467,34.134z"/>
		<path d="M595.133,83.634L581.4,60.701h-5.166v22.933h-11.769V24.8H586.9c6.834,0,12.032,1.667,15.634,5
			c3.6,3.333,5.366,7.733,5.366,13.167c0,4.433-1.233,8.167-3.699,11.167c-2.467,3-6.034,5-10.7,6l14.666,23.5H595.133
			L595.133,83.634z M576.233,52.634h9.666c6.731,0,10.065-2.967,10.065-8.9c0-2.833-0.834-5.033-2.467-6.633
			c-1.634-1.567-4.167-2.367-7.634-2.367H576.2v17.9H576.233L576.233,52.634z"/>
		<path d="M627.566,24.8v58.833H615.8V24.8H627.566z"/>
		<path d="M649.967,34.134v15.233H670.8v9h-20.833V74.2H673.3v9.433h-35.1V24.8h35.1v9.333L649.967,34.134L649.967,34.134z"/>
		<path d="M731.8,83.634h-11.731l-26.333-40v40h-11.769V24.8h11.769l26.333,40.333V24.8H731.8V83.634z"/>
		<path d="M787.3,29.9c4.833,3.767,8.033,8.9,9.602,15.434h-12.333c-1.269-3.167-3.269-5.667-5.969-7.5
			c-2.698-1.833-5.934-2.767-9.698-2.767c-3.102,0-5.935,0.767-8.435,2.333c-2.5,1.567-4.434,3.767-5.834,6.667
			c-1.397,2.9-2.064,6.267-2.064,10.167c0,3.833,0.698,7.2,2.064,10.1c1.4,2.9,3.334,5.1,5.834,6.667s5.3,2.333,8.435,2.333
			c3.767,0,7-0.934,9.698-2.767c2.7-1.833,4.667-4.333,5.969-7.5H796.9c-1.566,6.5-4.733,11.633-9.602,15.4
			c-4.867,3.767-10.898,5.667-18.231,5.667c-5.602,0-10.566-1.267-14.866-3.8c-4.301-2.534-7.634-6.067-10-10.633
			c-2.367-4.567-3.534-9.733-3.534-15.5c0-5.833,1.167-11.034,3.534-15.567c2.366-4.566,5.666-8.1,9.966-10.633
			c4.268-2.533,9.268-3.8,14.934-3.8C776.399,24.234,782.467,26.134,787.3,29.9z"/>
		<path d="M817.467,34.134v15.233H838.3v9h-20.833V74.2H840.8v9.433h-35.1V24.8h35.1v9.333L817.467,34.134L817.467,34.134z"/>
		<path d="M19.1,132.234v18.3h25v10.801h-25v19h28v11.301H5v-70.602h42.1v11.2H19.1L19.1,132.234z"/>
		<path d="M104.533,177.566c-2.434,4.435-6,7.9-10.633,10.367c-4.633,2.467-10.167,3.699-16.533,3.699h-20.9v-58.834h20.9
			c6.4,0,11.9,1.201,16.533,3.635c4.633,2.435,8.167,5.834,10.633,10.269c2.466,4.435,3.667,9.565,3.667,15.467
			C108.2,167.967,106.966,173.133,104.533,177.566z M91.066,176.133c3.467-3.334,5.2-8,5.2-14c0-6.066-1.733-10.768-5.2-14.1
			c-3.467-3.334-8.367-5-14.7-5H68.2V181.1h8.167C82.7,181.133,87.6,179.467,91.066,176.133z"/>
		<path d="M128.367,132.799v34.5c0,4.602,1,8.066,3.033,10.367c2.033,2.301,4.967,3.467,8.8,3.467c3.767,0,6.667-1.166,8.7-3.467
			c2.033-2.301,3.033-5.768,3.033-10.367v-34.5H163.6v34.5c0,5.436-1,10.033-3.033,13.801c-2.033,3.732-4.833,6.533-8.4,8.367
			c-3.6,1.832-7.667,2.768-12.2,2.768c-7.066,0-12.7-2.102-16.933-6.334c-4.233-4.231-6.334-10.399-6.334-18.602v-34.5H128.367z"/>
		<path d="M218.767,137.9c4.833,3.769,8.033,8.898,9.6,15.398h-12.333c-1.267-3.166-3.267-5.666-5.967-7.5
			c-2.7-1.832-5.933-2.766-9.7-2.766c-3.1,0-5.9,0.766-8.4,2.332s-4.433,3.768-5.833,6.668c-1.4,2.898-2.067,6.266-2.067,10.166
			c0,3.834,0.7,7.199,2.067,10.1c1.4,2.9,3.333,5.102,5.833,6.668s5.3,2.332,8.4,2.332c3.767,0,7-0.934,9.7-2.766
			c2.7-1.834,4.667-4.334,5.967-7.5h12.333c-1.566,6.5-4.733,11.633-9.6,15.398c-4.833,3.768-10.9,5.666-18.233,5.666
			c-5.6,0-10.567-1.267-14.867-3.8c-4.3-2.532-7.633-6.065-10-10.633s-3.533-9.733-3.533-15.5c0-5.834,1.167-11.035,3.533-15.567
			c2.367-4.564,5.667-8.101,9.967-10.634c4.267-2.532,9.233-3.799,14.933-3.799C207.833,132.234,213.933,134.133,218.767,137.9z"/>
		<path d="M273,179.799h-23.6l-4.167,11.834H232.8l21.667-58.166H267.9l21.567,58.166h-12.4L273,179.799z M269.833,170.9
			l-8.667-24.834l-8.667,24.834H269.833z"/>
		<path d="M335.833,132.799v9.334h-16.267v49.5h-11.733v-49.5h-16.167v-9.334H335.833z"/>
		<path d="M354.1,132.799v58.834h-11.732v-58.834H354.1z"/>
		<path d="M407.3,135.799c4.467,2.566,8,6.135,10.6,10.701c2.601,4.564,3.867,9.768,3.867,15.533s-1.3,10.967-3.867,15.564
			c-2.566,4.602-6.1,8.2-10.6,10.768c-4.467,2.566-9.467,3.834-14.967,3.834s-10.5-1.268-14.967-3.834
			c-4.466-2.566-8-6.133-10.6-10.768c-2.567-4.601-3.866-9.8-3.866-15.564c0-5.768,1.299-10.969,3.866-15.533
			c2.566-4.566,6.1-8.168,10.6-10.701c4.467-2.564,9.467-3.832,14.967-3.832S402.833,133.268,407.3,135.799z M383.267,145.133
			c-2.601,1.566-4.667,3.801-6.134,6.699c-1.467,2.936-2.199,6.334-2.199,10.201c0,3.898,0.732,7.299,2.199,10.199
			c1.467,2.934,3.5,5.166,6.134,6.699c2.6,1.565,5.634,2.334,9.101,2.334c3.433,0,6.466-0.769,9.1-2.334
			c2.6-1.566,4.666-3.8,6.133-6.699c1.467-2.935,2.2-6.334,2.2-10.199c0-3.9-0.733-7.301-2.2-10.201
			c-1.467-2.934-3.5-5.166-6.133-6.699c-2.601-1.566-5.634-2.334-9.101-2.334C388.9,142.799,385.866,143.6,383.267,145.133z"/>
		<path d="M480.434,191.633H468.7l-26.334-40v40h-11.733v-58.834h11.733l26.334,40.334v-40.334h11.731L480.434,191.633
			L480.434,191.633z"/>
		<path d="M524.434,165.467v26.199h-14.101v-70.633h25.7c8.333,0,14.6,2,18.866,6c4.231,4,6.365,9.434,6.365,16.299
			c0,6.732-2.198,12.102-6.564,16.102c-4.367,4-10.567,6-18.634,6h-11.634L524.434,165.467L524.434,165.467z M546.934,143.333
			c0-3.533-0.967-6.231-2.898-8.101c-1.936-1.866-5.102-2.799-9.5-2.799h-10.102v21.699h10.102
			C542.8,154.133,546.934,150.534,546.934,143.333z"/>
		<path d="M600.033,191.633L586.3,168.702h-5.167v22.934h-11.767V132.8H591.8c6.833,0,12.033,1.668,15.634,5
			c3.602,3.334,5.366,7.734,5.366,13.168c0,4.435-1.231,8.166-3.7,11.166c-2.467,3-6.031,5-10.698,6l14.667,23.5L600.033,191.633
			L600.033,191.633z M581.1,160.633h9.667c6.733,0,10.066-2.967,10.066-8.898c0-2.834-0.833-5.032-2.467-6.635
			c-1.633-1.565-4.166-2.365-7.633-2.365h-9.667v17.898H581.1z"/>
		<path d="M663.233,135.799c4.467,2.566,8,6.135,10.564,10.701c2.602,4.6,3.866,9.768,3.866,15.533S676.365,173,673.799,177.6
			c-2.564,4.602-6.1,8.198-10.564,10.768c-4.469,2.566-9.469,3.834-14.969,3.834s-10.5-1.268-14.967-3.834s-8-6.135-10.564-10.768
			c-2.603-4.601-3.867-9.802-3.867-15.566c0-5.766,1.3-10.967,3.867-15.533c2.564-4.6,6.1-8.166,10.564-10.699
			c4.467-2.566,9.467-3.834,14.967-3.834S658.767,133.268,663.233,135.799z M639.2,145.133c-2.603,1.566-4.667,3.801-6.134,6.699
			c-1.469,2.9-2.2,6.334-2.2,10.201c0,3.898,0.731,7.299,2.2,10.199c1.467,2.899,3.5,5.166,6.134,6.699
			c2.6,1.565,5.633,2.334,9.064,2.334c3.435,0,6.469-0.769,9.066-2.334c2.601-1.566,4.667-3.8,6.134-6.699
			c1.467-2.9,2.199-6.334,2.199-10.199c0-3.9-0.732-7.301-2.199-10.201c-1.467-2.898-3.5-5.166-6.134-6.699
			c-2.6-1.566-5.633-2.334-9.066-2.334C644.833,142.799,641.8,143.6,639.2,145.133z"/>
		<path d="M731.6,137.534c4.733,3.532,7.769,8.301,9.066,14.301h-12.333c-1.167-2.666-3-4.801-5.533-6.367
			c-2.533-1.6-5.5-2.366-8.967-2.366c-3.399,0-6.399,0.768-9,2.334c-2.6,1.565-4.633,3.768-6.066,6.666
			c-1.433,2.899-2.167,6.268-2.167,10.168c0,6.166,1.667,10.967,4.969,14.434c3.3,3.467,7.833,5.166,13.531,5.166
			c4.233,0,7.834-1.268,10.867-3.73c3.033-2.469,5-5.969,5.866-10.4h-19.934v-8.399h29.767v11.334
			c-0.833,3.897-2.466,7.468-4.866,10.767c-2.398,3.301-5.564,5.899-9.5,7.867c-3.934,1.967-8.398,2.967-13.467,2.967
			c-5.767,0-10.866-1.269-15.3-3.801c-4.436-2.533-7.833-6.065-10.269-10.565c-2.434-4.534-3.634-9.7-3.634-15.534
			c0-5.832,1.2-11,3.634-15.533c2.399-4.531,5.833-8.064,10.2-10.633c4.399-2.564,9.467-3.834,15.269-3.834
			C720.934,132.234,726.899,134,731.6,137.534z"/>
		<path d="M781.2,191.633L767.467,168.7H762.3v22.934h-11.767V132.8h22.434c6.833,0,12.033,1.668,15.633,5
			c3.603,3.334,5.367,7.734,5.367,13.168c0,4.435-1.231,8.166-3.7,11.166c-2.467,3-6.031,5-10.698,6l14.667,23.5L781.2,191.633
			L781.2,191.633z M762.267,160.633h9.667c6.732,0,10.066-2.967,10.066-8.898c0-2.834-0.834-5.032-2.467-6.635
			c-1.634-1.565-4.167-2.365-7.634-2.365h-9.666v17.898H762.267z"/>
		<path d="M837.7,179.799h-23.567l-4.166,11.834h-12.434l21.667-58.166h13.433l21.566,58.166H841.8L837.7,179.799z M834.533,170.9
			l-8.667-24.834L817.2,170.9H834.533z"/>
		<path d="M923.934,133.467v58.166h-11.667v-40.566l-14.898,40.566H887.2L872.3,151.2v40.434h-11.767v-58.166H874.8l17.667,43.732
			l17.333-43.732L923.934,133.467L923.934,133.467z"/>
	</g>
	<g>
		<path fill="#FF9517" d="M53,3.034v11.2H33.5v59.4H19.4v-59.4H0v-11.2H53z"/>
		<path fill="#FFFFFF" d="M95.566,61.8h-23.6L67.8,73.634H55.367l21.667-58.167h13.433l21.567,58.167h-12.4L95.566,61.8z M92.4,52.9
			l-8.667-24.833L75.066,52.9H92.4z"/>
		<path fill="#FFFFFF" d="M130.167,14.8v58.833h-11.733V14.8H130.167z"/>
		<path fill="#FFFFFF" d="M218,14.8l-14.434,58.833h-14.5l-11-42.667L167,73.634h-14.434l-14.4-58.833h12.767l9,45.6L171.6,14.8
			h12.934l11.733,45.6l9-45.6H218z"/>
		<path fill="#FFFFFF" d="M261.8,61.8h-23.6l-4.167,11.833h-12.4L243.3,15.467h13.433L278.3,73.634h-12.4L261.8,61.8z M258.633,52.9
			l-8.667-24.833L241.3,52.9H258.633z"/>
		<path fill="#FFFFFF" d="M334.467,73.634h-11.733l-26.333-40v40h-11.767V14.8h11.733L322.7,55.133V14.8h11.734v58.833
			L334.467,73.634L334.467,73.634z"/>
		<path fill="#FF9517" d="M378.467,14.234v18.3h25v10.8h-25v19h28v11.3h-42.1v-70.6h42.1v11.2H378.467z"/>
		<path fill="#FFFFFF" d="M450.399,73.634l-13.269-20.1l-11.731,20.1H412l18.5-30.1l-19-28.733h13.933l13.001,19.667l11.602-19.667
			h13.398l-18.398,29.567l19.333,29.267L450.399,73.634L450.399,73.634z"/>
		<path fill="#FFFFFF" d="M482.399,51.8v21.833h-11.733V14.8h21.4c6.934,0,12.167,1.667,15.698,5
			c3.533,3.333,5.302,7.867,5.302,13.6c0,5.6-1.833,10.1-5.469,13.434c-3.633,3.333-8.833,5-15.531,5h-9.667V51.8z M501.133,33.4
			c0-2.933-0.8-5.2-2.433-6.733c-1.634-1.533-4.233-2.333-7.936-2.333h-8.398V42.4h8.398C497.7,42.4,501.133,39.4,501.133,33.4z"/>
		<path fill="#FFFFFF" d="M532.467,24.134v15.233H553.3v9h-20.833V64.2H555.8v9.433h-35.1V14.8h35.1v9.333L532.467,24.134
			L532.467,24.134z"/>
		<path fill="#FFFFFF" d="M595.133,73.634L581.4,50.701h-5.166v22.933h-11.769V14.8H586.9c6.834,0,12.032,1.667,15.634,5
			c3.6,3.333,5.366,7.733,5.366,13.167c0,4.433-1.233,8.167-3.699,11.167c-2.467,3-6.034,5-10.7,6l14.666,23.5H595.133z
			 M576.233,42.634h9.666c6.731,0,10.065-2.967,10.065-8.9c0-2.833-0.834-5.033-2.467-6.633c-1.634-1.567-4.167-2.367-7.634-2.367
			H576.2v17.9H576.233L576.233,42.634z"/>
		<path fill="#FFFFFF" d="M627.566,14.8v58.833H615.8V14.8H627.566z"/>
		<path fill="#FFFFFF" d="M649.967,24.134v15.233H670.8v9h-20.833V64.2H673.3v9.433h-35.1V14.8h35.1v9.333L649.967,24.134
			L649.967,24.134z"/>
		<path fill="#FFFFFF" d="M731.8,73.634h-11.731l-26.333-40v40h-11.769V14.8h11.769l26.333,40.333V14.8H731.8V73.634z"/>
		<path fill="#FFFFFF" d="M787.3,19.9c4.833,3.767,8.033,8.9,9.602,15.4h-12.333c-1.269-3.167-3.269-5.667-5.969-7.5
			c-2.698-1.833-5.934-2.767-9.698-2.767c-3.102,0-5.935,0.767-8.435,2.333c-2.5,1.566-4.434,3.767-5.834,6.667
			c-1.397,2.9-2.064,6.267-2.064,10.167c0,3.833,0.698,7.2,2.064,10.1c1.4,2.9,3.334,5.1,5.834,6.667
			c2.5,1.566,5.3,2.333,8.435,2.333c3.767,0,7-0.933,9.698-2.767c2.7-1.833,4.667-4.333,5.969-7.5H796.9
			c-1.566,6.5-4.733,11.633-9.602,15.4C782.434,72.2,776.4,74.1,769.067,74.1c-5.602,0-10.566-1.267-14.866-3.8
			c-4.301-2.533-7.634-6.066-10-10.633c-2.367-4.566-3.534-9.733-3.534-15.5c0-5.833,1.167-11.033,3.534-15.566
			c2.366-4.567,5.666-8.1,9.966-10.633c4.268-2.533,9.268-3.8,14.934-3.8C776.399,14.234,782.467,16.134,787.3,19.9z"/>
		<path fill="#FFFFFF" d="M817.467,24.134v15.233H838.3v9h-20.833V64.2H840.8v9.433h-35.1V14.8h35.1v9.333L817.467,24.134
			L817.467,24.134z"/>
		<path fill="#FF9517" d="M19.1,122.234v18.3h25v10.801h-25v19h28v11.301H5v-70.602h42.1v11.2H19.1L19.1,122.234z"/>
		<path fill="#FFFFFF" d="M104.533,167.566c-2.434,4.435-6,7.9-10.633,10.367c-4.633,2.467-10.167,3.699-16.533,3.699h-20.9v-58.834
			h20.9c6.4,0,11.9,1.201,16.533,3.635c4.633,2.435,8.167,5.834,10.633,10.269c2.466,4.435,3.667,9.565,3.667,15.467
			C108.2,157.967,106.966,163.133,104.533,167.566z M91.066,166.133c3.467-3.334,5.2-8,5.2-14c0-6.066-1.733-10.768-5.2-14.1
			c-3.467-3.334-8.367-5-14.7-5H68.2V171.1h8.167C82.7,171.133,87.6,169.467,91.066,166.133z"/>
		<path fill="#FFFFFF" d="M128.367,122.799v34.5c0,4.602,1,8.066,3.033,10.367c2.033,2.301,4.967,3.467,8.8,3.467
			c3.767,0,6.667-1.166,8.7-3.467c2.033-2.301,3.033-5.768,3.033-10.367v-34.5H163.6v34.5c0,5.436-1,10.033-3.033,13.801
			c-2.033,3.732-4.833,6.533-8.4,8.367c-3.6,1.832-7.667,2.768-12.2,2.768c-7.066,0-12.7-2.102-16.933-6.334
			c-4.233-4.231-6.334-10.399-6.334-18.602v-34.5H128.367z"/>
		<path fill="#FFFFFF" d="M218.767,127.9c4.833,3.769,8.033,8.898,9.6,15.398h-12.333c-1.267-3.166-3.267-5.666-5.967-7.5
			c-2.7-1.832-5.933-2.766-9.7-2.766c-3.1,0-5.9,0.766-8.4,2.332s-4.433,3.768-5.833,6.668c-1.4,2.898-2.067,6.266-2.067,10.166
			c0,3.834,0.7,7.199,2.067,10.1c1.4,2.9,3.333,5.102,5.833,6.668s5.3,2.332,8.4,2.332c3.767,0,7-0.934,9.7-2.766
			c2.7-1.834,4.667-4.334,5.967-7.5h12.333c-1.566,6.5-4.733,11.633-9.6,15.398c-4.833,3.768-10.9,5.666-18.233,5.666
			c-5.6,0-10.567-1.267-14.867-3.8c-4.3-2.532-7.633-6.065-10-10.633s-3.533-9.733-3.533-15.5c0-5.834,1.167-11.033,3.533-15.567
			c2.367-4.564,5.667-8.101,9.967-10.634c4.267-2.532,9.233-3.799,14.933-3.799C207.833,122.234,213.933,124.133,218.767,127.9z"/>
		<path fill="#FFFFFF" d="M273,169.799h-23.6l-4.167,11.834H232.8l21.667-58.166H267.9l21.567,58.166h-12.4L273,169.799z
			 M269.833,160.9l-8.667-24.834l-8.667,24.834H269.833z"/>
		<path fill="#FFFFFF" d="M335.833,122.799v9.334h-16.267v49.5h-11.733v-49.5h-16.167v-9.334H335.833z"/>
		<path fill="#FFFFFF" d="M354.1,122.799v58.834h-11.732v-58.834H354.1z"/>
		<path fill="#FFFFFF" d="M407.3,125.799c4.467,2.568,8,6.135,10.6,10.701c2.601,4.564,3.867,9.768,3.867,15.533
			s-1.3,10.967-3.867,15.564c-2.566,4.602-6.1,8.2-10.6,10.768c-4.5,2.566-9.467,3.834-14.967,3.834s-10.5-1.268-14.967-3.834
			c-4.466-2.566-8-6.133-10.6-10.768c-2.567-4.601-3.866-9.8-3.866-15.564c0-5.768,1.299-10.969,3.866-15.533
			c2.566-4.566,6.1-8.168,10.6-10.701c4.467-2.564,9.467-3.832,14.967-3.832S402.833,123.268,407.3,125.799z M383.267,135.133
			c-2.601,1.566-4.667,3.801-6.134,6.699c-1.467,2.936-2.199,6.334-2.199,10.201c0,3.898,0.732,7.299,2.199,10.199
			c1.467,2.934,3.5,5.166,6.134,6.699c2.6,1.565,5.634,2.334,9.101,2.334c3.433,0,6.466-0.769,9.1-2.334
			c2.6-1.566,4.666-3.8,6.133-6.699c1.467-2.935,2.2-6.334,2.2-10.199c0-3.9-0.733-7.301-2.2-10.201
			c-1.467-2.934-3.5-5.166-6.133-6.699c-2.601-1.566-5.634-2.334-9.101-2.334C388.9,132.799,385.866,133.6,383.267,135.133z"/>
		<path fill="#FFFFFF" d="M480.434,181.633H468.7l-26.334-40v40h-11.733v-58.834h11.733l26.334,40.334v-40.334h11.731
			L480.434,181.633L480.434,181.633z"/>
		<path fill="#FF9517" d="M524.434,155.467v26.199h-14.101v-70.633h25.7c8.333,0,14.6,2,18.866,6c4.231,4,6.365,9.434,6.365,16.299
			c0,6.732-2.198,12.102-6.564,16.102c-4.367,4-10.567,6-18.634,6h-11.634L524.434,155.467L524.434,155.467z M546.934,133.333
			c0-3.533-0.967-6.231-2.898-8.101c-1.936-1.866-5.102-2.799-9.5-2.799h-10.102v21.699h10.102
			C542.8,144.133,546.934,140.534,546.934,133.333z"/>
		<path fill="#FFFFFF" d="M600.033,181.633L586.3,158.702h-5.167v22.934h-11.767V122.8H591.8c6.833,0,12.033,1.668,15.634,5
			c3.602,3.334,5.366,7.734,5.366,13.168c0,4.435-1.231,8.166-3.7,11.166c-2.467,3-6.031,5-10.698,6l14.667,23.5L600.033,181.633
			L600.033,181.633z M581.1,150.633h9.667c6.733,0,10.066-2.967,10.066-8.898c0-2.834-0.833-5.032-2.467-6.635
			c-1.633-1.565-4.166-2.365-7.633-2.365h-9.667v17.898H581.1z"/>
		<path fill="#FFFFFF" d="M663.233,125.799c4.467,2.568,8,6.135,10.564,10.701c2.602,4.6,3.866,9.768,3.866,15.533
			S676.365,163,673.799,167.6c-2.564,4.602-6.1,8.198-10.564,10.768c-4.469,2.566-9.469,3.834-14.969,3.834
			s-10.5-1.268-14.967-3.834s-8-6.135-10.564-10.768c-2.603-4.601-3.867-9.802-3.867-15.566c0-5.766,1.3-10.967,3.867-15.533
			c2.564-4.6,6.1-8.166,10.564-10.699c4.467-2.566,9.467-3.834,14.967-3.834S658.767,123.268,663.233,125.799z M639.2,135.133
			c-2.603,1.566-4.667,3.801-6.134,6.699c-1.469,2.9-2.2,6.334-2.2,10.201c0,3.898,0.731,7.299,2.2,10.199
			c1.467,2.899,3.5,5.166,6.134,6.699c2.6,1.565,5.633,2.334,9.064,2.334c3.435,0,6.469-0.769,9.066-2.334
			c2.601-1.566,4.667-3.8,6.134-6.699c1.467-2.9,2.199-6.334,2.199-10.199c0-3.9-0.732-7.301-2.199-10.201
			c-1.467-2.898-3.5-5.166-6.134-6.699c-2.6-1.566-5.633-2.334-9.066-2.334C644.833,132.799,641.8,133.6,639.2,135.133z"/>
		<path fill="#FFFFFF" d="M731.6,127.534c4.733,3.532,7.769,8.301,9.066,14.301h-12.333c-1.167-2.666-3-4.801-5.533-6.367
			c-2.533-1.6-5.5-2.366-8.967-2.366c-3.399,0-6.399,0.768-9,2.334c-2.6,1.565-4.633,3.768-6.066,6.666
			c-1.433,2.899-2.167,6.268-2.167,10.168c0,6.166,1.667,10.967,4.969,14.434c3.3,3.467,7.833,5.166,13.531,5.166
			c4.233,0,7.834-1.268,10.867-3.73c3.033-2.469,5-5.969,5.866-10.4h-19.934v-8.399h29.767v11.334
			c-0.833,3.897-2.466,7.468-4.866,10.767c-2.398,3.301-5.564,5.899-9.5,7.867c-3.934,1.967-8.398,2.967-13.467,2.967
			c-5.767,0-10.866-1.269-15.3-3.801c-4.436-2.533-7.833-6.065-10.269-10.565c-2.434-4.534-3.634-9.7-3.634-15.534
			c0-5.832,1.2-11,3.634-15.533c2.399-4.531,5.833-8.064,10.2-10.633c4.399-2.564,9.467-3.832,15.269-3.832
			C720.934,122.234,726.899,124,731.6,127.534z"/>
		<path fill="#FFFFFF" d="M781.2,181.633L767.467,158.7H762.3v22.934h-11.767V122.8h22.434c6.833,0,12.033,1.668,15.633,5
			c3.603,3.334,5.367,7.734,5.367,13.168c0,4.435-1.231,8.166-3.7,11.166c-2.467,3-6.031,5-10.698,6l14.667,23.5L781.2,181.633
			L781.2,181.633z M762.267,150.633h9.667c6.732,0,10.066-2.967,10.066-8.898c0-2.834-0.834-5.032-2.467-6.635
			c-1.634-1.565-4.167-2.365-7.634-2.365h-9.666v17.898H762.267z"/>
		<path fill="#FFFFFF" d="M837.7,169.799h-23.567l-4.166,11.834h-12.434l21.667-58.166h13.433l21.566,58.166H841.8L837.7,169.799z
			 M834.533,160.9l-8.667-24.834L817.2,160.9H834.533z"/>
		<path fill="#FFFFFF" d="M923.934,123.467v58.166h-11.667v-40.566l-14.898,40.566H887.2l-14.9-40.398v40.398h-11.767v-58.166H874.8
			l17.667,43.732l17.333-43.732H923.934L923.934,123.467z"/>
	</g>
</g>
</svg>
